<svg xmlns="http://www.w3.org/2000/svg" width="32" height="32" version="1" id="food"><path fill="#24c4bc" d="M32 16c0 8.836-7.164 16-16 16S0 24.836 0 16 7.164 0 16 0s16 7.164 16 16z"></path><path d="M17.158 31.883c.695-.05 1.4-.07 2.067-.207a15.887 15.887 0 0 0 5.72-2.408 16.083 16.083 0 0 0 2.367-1.956 15.953 15.953 0 0 0 3.43-5.084c.196-.463.299-.97.451-1.455L18.238 7.818l-.017-.017c-.038-.038-.088-.06-.133-.09-.034-.022-.06-.05-.098-.066a.759.759 0 0 0-.306-.065c-.153 0-.305.23-.229.383a.604.604 0 0 0 .11.156l.345.346c-.023.015-.045.033-.072.033h-.078a.906.906 0 0 0-.487.268l-.943-.942-.004-.006-.006-.004-.013-.013c-.033-.033-.077-.052-.116-.078-.038-.027-.07-.06-.115-.078a.778.778 0 0 0-.22-.047l-.018-.018h-.068c-.154 0-.306.23-.229.383 0 .05.027.097.064.139.004.004.004.01.008.013l.346.346a.31.31 0 0 1-.111.037h-.078a.93.93 0 0 0-.268.098c-.002 0-.002.003-.004.004l-.775-.776-.004-.006c-.002-.001-.005-.002-.006-.004l-.014-.013c-.032-.033-.077-.052-.115-.078-.039-.027-.071-.06-.115-.078a.759.759 0 0 0-.307-.065h-.152c-.153 0-.307.23-.23.383 0 .057.028.11.066.154.004.006.002.014.008.02l.345.345c-.013.005-.024.016-.037.016h-.152c-.383.077-.69.383-.69.766 0 .191.097.383.24.527l.536.535c-.146-.015-.317.118-.317.317 0 .052.033.102.075.148.005.006.004.012.01.018l1.058 1.058h-.912c-.153 0-.23.152-.23.305v.613h-3.368c-.842 0-1.453.382-1.76.918-.306.46-.382 1.072-.382 1.608 0 .076.038.153.095.21l.938.938h-.729c-.23-.23-.612-.459-.918-.459-.689 0-1.224.536-1.224 1.225 0 .344.133.65.353.87L8.27 19.58v2.39a2.554 2.554 0 0 0 .185.954c.026.062.063.117.094.176.043.083.082.17.135.248.04.059.091.109.136.164.05.06.093.126.149.181l.008.008.02.02 8.161 8.162z" opacity=".25"></path><path fill="#fff" d="M14.01 7.58c-.153 0-.306.23-.23.383 0 .153.153.306.383.23.076 0 .153.076.153.152a.165.165 0 0 1-.153.154h-.153c-.383.076-.69.382-.69.765s.384.765.766.765h.077c.076 0 .153.077.153.154a.165.165 0 0 1-.153.153c-.153-.077-.383.076-.383.306 0 .153.23.306.383.306a.767.767 0 0 0 .765-.765c0-.383-.306-.69-.689-.766h-.153a.165.165 0 0 1-.153-.153c0-.077.077-.153.153-.153h.077c.383 0 .765-.383.765-.766a.767.767 0 0 0-.765-.765h-.153zm1.76 0c-.153 0-.306.23-.23.383 0 .153.23.306.383.23.077 0 .154.076.154.152 0 .077-.154.154-.23.154h-.077c-.382.076-.689.382-.689.765s.383.765.766.765c.076 0 .153.077.153.154a.165.165 0 0 1-.153.153c-.153-.077-.383.076-.383.306 0 .153.23.306.383.306.46 0 .765-.306.765-.765 0-.383-.306-.69-.689-.766h-.153a.165.165 0 0 1-.153-.153c0-.077.077-.153.153-.153.46 0 .766-.383.766-.766a.767.767 0 0 0-.766-.765c.153 0 0 0 0 0zm1.914 0c-.153 0-.306.23-.23.383.077.153.23.306.383.23.077 0 .153.076.153.152a.165.165 0 0 1-.153.154h-.076c-.383.076-.69.382-.69.765s.383.765.766.765h.077c.076 0 .153.077.153.154a.165.165 0 0 1-.153.153c-.23-.077-.383.076-.383.306 0 .153.23.306.383.306a.767.767 0 0 0 .765-.765c0-.383-.306-.69-.689-.766h-.153a.165.165 0 0 1-.153-.153c-.153-.077 0-.153 0-.153.383 0 .765-.383.765-.766a.767.767 0 0 0-.765-.765zm-3.674 4.287c-.153 0-.23.153-.23.306v.612h-3.368c-.842 0-1.454.383-1.76.919-.307.459-.383 1.071-.383 1.607a.33.33 0 0 0 .306.306h14.85a.33.33 0 0 0 .306-.306c0-.46 0-1.072-.23-1.607-.23-.536-.765-.919-1.607-.919h-3.75v-.612a.33.33 0 0 0-.307-.306H14.01zM7.657 16a1.21 1.21 0 0 0-1.225 1.225 1.21 1.21 0 0 0 1.225 1.224c.23 0 .459-.076.612-.153v3.675c0 1.377 1.072 2.449 2.526 2.449h10.41a2.548 2.548 0 0 0 2.526-2.526v-3.598c.153.077.383.153.612.153a1.21 1.21 0 0 0 1.225-1.224A1.21 1.21 0 0 0 24.343 16c-.382 0-.765.153-.995.46H8.575c-.23-.23-.612-.46-.918-.46z"></path></svg>